<?xml version="1.0" encoding="UTF-8" ?>
<!DOCTYPE svg PUBLIC "-//W3C//DTD SVG 1.1//EN" "http://www.w3.org/Graphics/SVG/1.1/DTD/svg11.dtd">
<svg width="1667pt" height="737pt" viewBox="0 0 1667 737" version="1.1" xmlns="http://www.w3.org/2000/svg">
<g id="#010101fc">
<path fill="#010101" opacity="1.00" d=" M 317.03 60.05 C 348.94 41.44 386.63 36.39 423.00 36.03 C 445.34 36.09 467.58 39.08 489.46 43.39 C 501.91 45.97 514.75 45.95 527.15 48.74 C 526.50 69.52 524.41 90.22 524.90 111.04 C 524.82 114.94 523.52 121.50 518.18 119.96 C 515.22 116.49 515.53 111.52 514.44 107.35 C 512.75 96.23 507.84 85.25 499.09 77.91 C 481.59 64.54 459.73 58.34 438.14 55.77 C 417.71 53.49 396.88 52.93 376.57 56.53 C 353.67 60.95 331.49 71.29 314.82 87.81 C 297.87 106.07 288.12 130.20 284.66 154.67 C 282.08 174.53 280.80 194.94 285.34 214.63 C 291.49 243.85 304.00 272.41 324.72 294.28 C 346.65 316.06 375.20 331.35 405.83 336.27 C 423.04 338.73 440.66 339.97 457.87 336.81 C 466.42 335.27 475.25 333.41 482.64 328.59 C 488.35 323.47 487.65 314.91 487.99 308.03 C 488.07 280.69 488.42 253.32 486.87 226.01 C 485.97 219.99 484.33 212.49 478.04 209.94 C 470.18 204.96 459.79 208.50 451.94 203.96 C 452.08 202.61 452.36 199.93 452.50 198.59 C 457.12 196.94 462.13 197.48 466.96 197.28 C 486.30 197.62 505.66 199.36 525.00 197.97 C 535.03 198.26 545.77 195.24 555.33 199.57 C 554.86 201.36 554.40 203.15 553.93 204.94 C 546.75 206.45 538.43 205.68 532.28 210.33 C 526.69 214.40 526.83 221.87 526.13 228.02 C 523.35 262.75 526.36 297.67 524.47 332.42 C 524.22 338.56 518.01 341.17 513.19 343.23 C 483.29 356.01 450.22 359.44 417.98 358.89 C 386.69 357.40 355.07 351.35 326.97 337.05 C 307.00 327.31 288.96 313.22 275.51 295.46 C 244.82 254.46 236.33 198.94 249.84 149.93 C 260.03 113.07 283.27 78.95 317.03 60.05 Z" />
<path fill="#010101" opacity="1.00" d=" M 1106.00 106.02 C 1130.21 105.19 1154.90 108.37 1178.78 103.15 C 1178.92 109.82 1177.96 116.42 1177.42 123.05 C 1176.69 130.19 1176.56 137.60 1173.70 144.30 C 1167.52 140.03 1169.10 131.24 1165.58 125.32 C 1161.89 121.86 1156.59 121.22 1151.86 120.42 C 1138.01 118.42 1123.94 119.09 1110.01 118.98 C 1110.11 145.56 1109.71 172.14 1110.22 198.72 C 1125.81 199.18 1141.42 198.75 1156.99 197.70 C 1163.29 196.69 1168.61 192.86 1174.52 190.68 C 1173.03 205.12 1173.00 219.79 1170.47 234.10 C 1169.03 234.04 1167.60 233.97 1166.19 233.90 C 1164.17 227.17 1165.37 216.40 1156.94 214.10 C 1141.67 210.72 1125.83 212.31 1110.32 211.31 C 1109.86 235.52 1109.78 259.76 1110.11 283.98 C 1110.75 289.48 1110.63 295.98 1114.72 300.29 C 1122.91 307.03 1134.26 304.49 1144.00 305.21 C 1153.31 304.54 1164.92 306.59 1172.29 299.30 C 1178.81 293.97 1177.93 284.55 1181.78 277.57 C 1183.24 278.38 1184.71 279.21 1186.19 280.03 C 1185.30 291.03 1184.97 302.26 1181.92 312.94 C 1180.85 317.21 1176.41 319.83 1172.02 318.86 C 1149.01 319.47 1125.99 319.08 1103.00 318.09 C 1090.40 317.40 1077.81 319.13 1065.25 318.16 C 1064.71 316.83 1064.18 315.50 1063.66 314.18 C 1069.31 311.15 1079.37 312.85 1081.19 305.16 C 1084.30 292.02 1083.88 278.40 1084.05 265.00 C 1083.90 221.66 1084.08 178.31 1084.02 134.97 C 1083.41 128.09 1084.93 118.60 1077.69 114.55 C 1071.46 111.90 1062.26 114.18 1058.77 107.04 C 1074.24 103.35 1090.30 106.84 1106.00 106.02 Z" />
<path fill="#010101" opacity="1.00" d=" M 637.03 116.07 C 638.87 111.43 640.87 106.39 645.53 103.93 C 651.77 114.11 654.99 125.64 659.43 136.62 C 675.37 177.99 691.08 219.44 707.28 260.70 C 714.00 276.15 718.22 293.36 730.14 305.86 C 735.51 312.08 744.66 311.00 751.99 312.84 C 752.01 314.40 752.03 315.97 752.06 317.53 C 740.46 319.35 728.66 318.32 717.00 318.19 C 708.88 317.93 700.70 318.03 692.70 316.57 C 695.04 312.07 697.78 306.72 695.36 301.69 C 687.11 280.53 679.32 259.18 671.12 237.99 C 650.80 238.01 630.49 237.94 610.18 238.08 C 604.86 253.75 599.78 269.50 594.27 285.10 C 591.43 292.58 590.02 300.45 589.43 308.41 C 595.11 311.41 602.19 311.21 607.06 315.72 C 604.04 317.22 600.85 318.82 597.38 318.62 C 581.56 317.91 565.72 317.91 549.92 318.69 C 546.18 319.07 542.84 317.15 539.74 315.35 C 546.93 310.99 556.26 312.18 563.26 307.25 C 569.46 301.31 572.29 293.05 575.26 285.23 C 595.83 228.83 616.54 172.49 637.03 116.07 M 639.42 149.69 C 631.27 174.78 623.05 199.85 614.83 224.92 C 631.99 225.04 649.16 225.06 666.32 224.89 C 657.29 199.85 649.01 174.53 639.42 149.69 Z" />
<path fill="#010101" opacity="1.00" d=" M 810.12 103.83 C 813.44 105.76 816.33 108.42 817.93 112.00 C 845.00 167.80 872.08 223.61 899.42 279.28 C 920.83 234.28 941.68 189.02 962.97 143.96 C 969.15 130.92 974.80 117.60 981.86 105.00 C 983.38 104.98 984.91 104.96 986.45 104.94 C 989.07 115.45 989.80 126.28 991.04 137.00 C 996.35 185.99 1001.69 234.98 1007.10 283.96 C 1008.22 292.87 1010.15 303.30 1018.44 308.44 C 1026.28 312.02 1035.39 311.29 1043.31 314.72 C 1039.74 317.82 1035.05 319.10 1030.35 318.58 C 1013.59 317.56 996.38 319.16 979.93 315.16 C 982.21 307.68 983.49 299.76 982.28 291.96 C 977.71 249.58 974.89 207.02 969.81 164.70 C 948.19 209.02 927.55 253.81 906.50 298.40 C 902.70 305.62 900.94 315.44 892.61 318.94 C 880.14 297.97 870.13 275.68 858.99 254.00 C 844.25 225.33 831.51 195.69 817.60 166.62 C 814.33 203.08 811.35 239.57 808.12 276.03 C 807.10 286.47 806.95 296.97 806.71 307.45 C 812.39 310.93 819.16 311.50 825.60 312.63 C 825.80 314.27 825.98 315.91 826.19 317.56 C 814.20 319.47 802.05 317.69 790.00 318.19 C 781.97 318.13 773.84 319.30 765.93 317.49 C 765.94 315.99 765.97 314.49 766.00 313.00 C 772.41 312.01 781.01 312.24 784.40 305.40 C 787.06 297.06 787.41 288.19 788.44 279.54 C 794.31 225.45 800.56 171.40 806.32 117.30 C 806.76 112.61 808.08 108.07 810.12 103.83 Z" />
<path fill="#010101" opacity="1.00" d=" M 1388.81 142.38 C 1409.34 142.79 1430.06 144.38 1450.49 141.33 C 1450.02 149.25 1449.12 157.13 1448.18 165.01 C 1446.93 164.96 1445.70 164.91 1444.48 164.85 C 1443.09 160.35 1442.74 154.01 1437.15 152.84 C 1427.17 151.38 1417.03 152.04 1407.00 151.97 C 1407.00 168.32 1406.98 184.67 1407.00 201.02 C 1418.63 201.01 1430.29 201.48 1441.92 200.61 C 1445.23 200.01 1447.99 197.89 1451.01 196.52 C 1450.77 205.38 1449.92 214.21 1448.98 223.01 C 1447.79 222.95 1446.61 222.90 1445.46 222.84 C 1443.70 218.58 1443.18 212.42 1438.18 210.81 C 1427.84 209.35 1417.34 210.06 1406.95 209.91 C 1407.02 230.34 1407.07 250.83 1408.76 271.20 C 1409.20 277.86 1418.25 275.60 1422.53 277.72 C 1422.70 278.89 1422.90 280.06 1423.10 281.23 C 1408.74 281.85 1394.38 281.29 1380.03 281.40 C 1380.02 280.02 1380.04 278.65 1380.08 277.29 C 1383.12 276.63 1386.17 275.92 1389.20 275.16 C 1391.49 260.90 1391.00 246.39 1391.06 232.00 C 1390.87 208.66 1391.07 185.32 1391.12 161.98 C 1390.93 158.13 1391.39 153.97 1389.67 150.37 C 1385.26 148.17 1380.47 147.03 1375.96 145.12 C 1379.59 142.23 1384.35 142.37 1388.81 142.38 Z" />
<path fill="#010101" opacity="1.00" d=" M 1296.43 149.54 C 1318.32 146.35 1342.83 151.94 1357.72 169.27 C 1367.71 179.86 1372.21 194.61 1372.05 208.98 C 1373.54 227.21 1366.44 245.71 1353.81 258.80 C 1334.16 279.77 1300.20 283.61 1275.04 270.90 C 1254.60 260.58 1242.52 237.55 1242.97 215.02 C 1241.10 184.07 1264.87 152.66 1296.43 149.54 M 1295.02 158.10 C 1295.00 194.34 1294.92 230.57 1295.08 266.81 C 1298.36 267.59 1301.65 268.40 1304.95 269.17 C 1305.04 231.76 1305.02 194.34 1304.96 156.92 C 1301.57 157.31 1298.36 157.73 1295.02 158.10 M 1310.04 156.84 C 1309.95 194.29 1310.00 231.73 1310.01 269.19 C 1313.66 268.84 1317.30 268.49 1320.98 268.11 C 1320.99 231.79 1321.06 195.48 1320.94 159.17 C 1317.29 158.41 1313.66 157.61 1310.04 156.84 M 1265.51 182.58 C 1258.57 199.10 1259.63 218.24 1264.84 235.11 C 1269.04 248.32 1279.25 258.29 1290.85 265.32 C 1291.13 229.80 1291.02 194.27 1290.91 158.75 C 1279.75 163.15 1270.10 171.29 1265.51 182.58 M 1325.16 160.61 C 1324.85 196.12 1324.99 231.64 1325.07 267.15 C 1328.95 265.04 1332.95 263.09 1336.59 260.54 C 1347.15 252.23 1352.22 238.87 1353.78 225.87 C 1354.65 212.08 1354.03 197.62 1348.18 184.86 C 1343.69 174.28 1334.76 166.49 1325.16 160.61 Z" />
<path fill="#010101" opacity="1.00" d=" M 111.80 363.79 C 127.82 368.20 144.39 370.06 160.99 369.97 C 614.33 370.06 1067.67 369.95 1521.00 370.02 C 1533.15 370.62 1545.04 367.90 1557.01 366.39 C 1558.90 381.82 1562.79 396.88 1566.10 412.03 C 1567.03 415.48 1565.77 418.92 1564.63 422.15 C 1563.59 422.12 1561.50 422.07 1560.45 422.05 C 1558.32 415.83 1558.47 408.84 1554.73 403.25 C 1548.68 396.80 1539.92 394.32 1531.59 392.48 C 1516.93 389.50 1501.89 389.25 1487.00 388.98 C 1073.00 389.03 659.00 388.98 245.00 389.00 C 245.41 457.67 244.00 526.36 246.03 595.00 C 246.30 617.15 245.04 639.41 247.40 661.49 C 248.23 668.52 249.85 677.88 258.14 679.74 C 266.44 681.92 275.20 681.53 283.53 683.61 C 282.84 685.76 282.12 687.92 281.35 690.05 C 265.34 689.94 249.32 690.19 233.32 689.68 C 217.53 689.06 201.75 690.77 185.96 689.93 C 182.90 689.88 182.34 686.05 180.94 684.00 C 187.63 682.18 194.95 682.27 201.25 679.22 C 206.97 673.87 207.10 665.23 208.21 658.05 C 209.32 642.06 209.65 626.02 209.99 610.00 C 210.02 536.34 209.99 462.67 210.00 389.01 C 189.37 389.12 168.74 388.68 148.13 389.20 C 138.32 389.97 127.54 390.18 119.31 396.33 C 112.85 401.42 111.18 410.02 106.21 416.24 C 104.58 418.41 101.68 416.98 99.47 416.89 C 102.19 398.95 105.78 380.94 111.80 363.79 Z" />
<path fill="#010101" opacity="1.00" d=" M 833.44 435.56 C 869.33 431.43 908.42 441.46 933.71 468.28 C 958.55 495.39 965.40 535.40 957.57 570.59 C 953.42 590.73 943.47 609.49 929.56 624.59 C 915.27 639.73 896.48 650.30 876.36 655.41 C 852.10 660.71 826.06 660.51 802.76 651.29 C 784.33 644.56 768.57 631.73 756.99 616.04 C 734.73 584.77 729.46 542.08 743.21 506.28 C 748.87 490.69 758.22 476.61 769.72 464.72 C 786.71 447.93 809.71 437.74 833.44 435.56 M 823.04 449.94 C 822.97 513.31 822.96 576.67 823.05 640.04 C 829.29 641.69 835.53 643.47 841.94 644.42 C 842.05 578.57 842.01 512.73 841.96 446.88 C 835.63 447.75 829.31 448.77 823.04 449.94 M 850.03 446.78 C 849.96 512.91 850.01 579.03 850.01 645.16 C 855.98 644.87 861.99 644.60 867.98 644.20 C 868.40 579.48 867.22 514.74 868.59 450.04 C 862.39 448.92 856.23 447.76 850.03 446.78 M 782.05 478.05 C 771.37 492.86 766.54 511.11 765.23 529.13 C 764.58 549.78 766.62 571.02 774.78 590.22 C 782.60 609.53 796.70 625.98 814.92 636.22 C 814.97 574.94 815.22 513.66 814.79 452.38 C 801.89 457.87 789.84 466.19 782.05 478.05 M 875.10 452.58 C 874.94 515.86 874.90 579.14 875.13 642.42 C 892.51 637.45 908.22 625.96 916.92 609.94 C 929.74 587.43 932.65 560.44 929.95 535.03 C 928.09 514.24 921.53 493.21 907.96 477.02 C 899.39 466.20 887.91 457.70 875.10 452.58 Z" />
<path fill="#010101" opacity="1.00" d=" M 994.00 433.58 C 1000.35 436.70 1005.47 441.65 1010.10 446.91 C 1037.09 476.56 1064.51 505.82 1091.79 535.21 C 1115.83 560.60 1138.89 586.90 1162.87 612.34 C 1161.64 564.89 1160.54 517.43 1159.93 469.97 C 1159.38 463.14 1159.61 455.43 1155.25 449.73 C 1149.21 444.56 1140.22 446.33 1132.99 444.30 C 1132.96 442.73 1132.96 441.17 1132.97 439.61 C 1154.82 438.62 1176.72 438.83 1198.59 439.23 C 1198.75 440.76 1198.92 442.30 1199.11 443.84 C 1193.85 445.33 1188.21 445.86 1183.33 448.35 C 1179.01 451.70 1179.85 458.18 1179.17 463.00 C 1178.58 516.33 1179.39 569.68 1178.85 623.02 C 1178.23 634.66 1178.55 646.47 1176.39 657.97 C 1169.67 655.08 1164.38 649.80 1159.19 644.81 C 1107.13 592.74 1057.17 538.64 1008.07 483.77 C 1008.33 525.87 1010.58 567.93 1011.11 610.02 C 1011.44 619.68 1011.32 629.55 1014.20 638.88 C 1015.45 642.11 1017.82 645.55 1021.39 646.36 C 1027.67 648.55 1036.89 645.75 1040.24 653.03 C 1023.08 657.20 1005.35 653.08 987.97 654.62 C 981.52 653.68 970.80 658.88 968.81 649.41 C 975.06 648.27 981.33 647.32 987.61 646.26 C 992.13 634.05 991.91 620.81 992.06 608.00 C 991.93 559.67 992.08 511.33 991.92 463.00 C 991.84 453.15 992.26 443.28 994.00 433.58 Z" />
<path fill="#010101" opacity="1.00" d=" M 1446.13 436.18 C 1464.72 432.67 1483.42 436.35 1501.73 439.51 C 1501.50 453.03 1501.87 466.73 1499.64 480.10 C 1498.65 480.07 1496.66 480.02 1495.67 479.99 C 1492.94 471.66 1492.47 461.71 1485.36 455.64 C 1476.48 447.78 1463.69 447.00 1452.41 447.48 C 1440.81 447.95 1429.59 455.23 1425.07 466.03 C 1420.83 477.25 1422.65 490.43 1430.11 499.86 C 1448.53 522.92 1476.50 536.03 1494.02 559.96 C 1511.37 582.36 1510.74 617.37 1491.23 638.23 C 1483.38 647.92 1471.62 653.56 1459.69 656.39 C 1439.92 660.88 1418.38 660.03 1399.97 650.99 C 1395.78 649.78 1394.90 644.68 1395.10 641.01 C 1394.81 628.25 1394.65 614.99 1398.47 602.67 C 1399.80 603.14 1401.17 603.64 1402.53 604.12 C 1403.18 614.98 1404.77 627.00 1413.16 634.84 C 1425.28 646.07 1443.99 648.41 1459.40 643.50 C 1474.00 639.00 1484.05 624.12 1483.78 609.01 C 1484.31 597.32 1478.89 586.28 1471.22 577.79 C 1453.63 558.31 1429.54 545.41 1414.11 523.87 C 1399.36 505.10 1396.81 475.87 1411.32 456.30 C 1419.30 444.90 1432.72 438.51 1446.13 436.18 Z" />
<path fill="#010101" opacity="1.00" d=" M 1336.03 438.90 C 1340.38 438.69 1344.58 437.34 1348.80 436.26 C 1349.47 436.91 1350.15 437.56 1350.86 438.22 C 1349.76 447.46 1348.59 456.70 1347.79 465.97 C 1347.65 469.99 1346.64 473.92 1344.95 477.55 C 1343.67 476.93 1342.41 476.31 1341.16 475.70 C 1340.29 468.64 1340.44 458.53 1332.16 455.81 C 1315.64 450.98 1297.97 453.59 1281.01 451.90 C 1280.98 478.92 1280.99 505.95 1281.01 532.98 C 1294.34 532.97 1307.67 533.20 1321.02 533.08 C 1325.53 533.10 1330.19 532.89 1334.48 531.29 C 1338.23 529.22 1341.57 526.40 1345.48 524.56 C 1346.06 539.41 1343.17 554.15 1342.23 568.96 C 1340.70 568.97 1339.18 569.00 1337.68 569.03 C 1336.29 561.82 1336.30 552.03 1328.05 548.97 C 1312.66 545.57 1296.63 547.14 1281.00 545.91 C 1281.15 570.95 1280.70 595.99 1281.06 621.03 C 1281.30 627.45 1281.57 636.52 1289.02 638.88 C 1299.48 642.84 1311.05 641.76 1322.02 642.00 C 1330.13 641.17 1339.27 640.51 1345.31 634.32 C 1349.70 628.37 1350.33 620.80 1352.71 613.99 C 1353.71 613.98 1355.70 613.96 1356.70 613.95 C 1358.16 624.46 1356.77 635.13 1354.45 645.41 C 1353.22 649.61 1351.51 655.05 1346.37 655.36 C 1318.93 657.65 1291.45 653.86 1263.99 654.28 C 1253.56 654.19 1242.86 655.86 1232.69 652.97 C 1235.88 646.95 1243.70 648.86 1248.81 645.68 C 1254.15 637.56 1253.15 627.25 1253.90 618.02 C 1254.17 568.01 1253.90 517.99 1254.04 467.98 C 1253.47 462.02 1254.94 454.48 1250.30 449.69 C 1244.58 445.17 1236.81 445.64 1230.00 444.21 C 1229.97 442.67 1229.96 441.14 1229.96 439.62 C 1265.30 438.11 1300.68 439.60 1336.03 438.90 Z" />
<path fill="#010101" opacity="1.00" d=" M 292.96 439.61 C 314.98 438.74 337.05 438.69 359.08 439.07 C 361.87 438.92 363.40 441.57 365.04 443.36 C 359.56 445.13 353.37 445.34 348.38 448.43 C 343.66 453.75 344.37 461.42 344.01 467.97 C 343.78 487.98 344.09 507.98 344.01 527.99 C 384.00 528.00 424.00 528.00 463.99 527.99 C 463.81 505.99 464.39 483.99 463.90 462.00 C 463.26 457.21 462.68 451.59 458.67 448.38 C 452.95 445.39 446.17 445.64 439.99 444.23 C 439.98 442.69 439.97 441.15 439.96 439.61 C 462.30 438.73 484.69 438.68 507.04 439.09 C 509.63 438.90 510.68 441.61 511.42 443.60 C 505.64 446.11 497.46 444.81 493.32 450.30 C 490.48 457.84 491.12 466.08 490.89 473.99 C 491.10 522.33 490.98 570.67 490.95 619.01 C 490.92 627.20 491.47 635.67 494.75 643.27 C 500.68 651.13 514.81 643.28 519.23 653.04 C 509.24 655.69 498.74 654.79 488.54 654.61 C 474.30 653.70 460.07 654.69 445.85 655.12 C 445.06 653.37 444.29 651.62 443.55 649.87 C 449.58 647.78 460.10 648.72 461.36 640.37 C 466.51 607.87 462.97 574.75 463.99 542.00 C 424.00 542.00 384.00 541.99 344.00 542.01 C 344.04 565.34 343.94 588.67 343.95 612.01 C 344.19 622.26 343.86 632.86 347.38 642.67 C 352.84 651.48 367.74 643.05 372.23 653.04 C 362.24 655.69 351.74 654.79 341.54 654.61 C 327.30 653.70 313.07 654.69 298.85 655.12 C 298.06 653.37 297.29 651.62 296.55 649.87 C 302.39 647.73 312.28 648.83 314.21 641.16 C 317.03 629.01 316.83 616.40 317.04 604.00 C 316.92 558.99 317.08 513.98 317.01 468.97 C 316.30 462.26 317.74 453.12 311.64 448.40 C 305.95 445.37 299.16 445.64 292.99 444.23 C 292.98 442.68 292.97 441.15 292.96 439.61 Z" />
<path fill="#010101" opacity="1.00" d=" M 541.81 438.97 C 570.20 439.25 598.59 438.55 626.97 439.23 C 643.88 440.71 662.04 446.11 672.75 460.23 C 684.65 474.50 686.54 495.19 680.39 512.32 C 674.90 529.61 663.12 544.02 650.14 556.33 C 665.16 575.15 679.48 594.54 695.12 612.87 C 704.78 624.16 714.37 636.33 727.99 643.05 C 735.57 647.31 744.56 647.10 752.90 648.45 C 755.73 648.70 755.42 652.31 757.15 653.97 C 737.05 654.58 714.81 658.92 696.30 648.68 C 679.17 637.53 668.50 619.59 656.13 603.85 C 646.28 591.59 638.06 578.06 628.02 565.99 C 615.92 562.19 602.59 564.54 590.01 563.98 C 590.27 586.94 589.10 609.98 591.24 632.88 C 592.29 637.26 592.37 643.51 596.98 645.93 C 603.62 647.84 610.59 648.05 617.42 649.03 C 616.75 651.07 616.05 653.10 615.31 655.12 C 597.86 655.08 580.41 653.96 562.97 654.74 C 556.52 654.70 549.71 655.41 543.64 652.82 C 544.18 651.59 544.72 650.38 545.26 649.18 C 550.35 647.91 557.34 648.65 560.67 643.68 C 565.55 629.34 563.70 613.90 564.82 599.02 C 565.13 557.35 565.14 515.68 564.82 474.02 C 564.07 466.45 565.48 458.16 561.68 451.24 C 556.41 444.54 546.91 446.18 539.55 444.08 C 540.28 442.36 541.04 440.66 541.81 438.97 M 590.32 452.24 C 589.61 484.27 590.21 516.30 589.95 548.33 C 597.00 550.98 604.46 552.54 611.98 552.99 C 622.38 553.38 634.07 553.47 642.64 546.63 C 654.72 535.72 657.69 518.47 657.09 502.98 C 657.28 485.71 650.79 467.02 635.79 457.22 C 622.29 448.71 605.40 449.24 590.32 452.24 Z" />
</g>
</svg>
